<?xml version="1.0" encoding="utf-8"?>
<!-- Generator: Adobe Illustrator 25.3.0, SVG Export Plug-In . SVG Version: 6.00 Build 0)  -->
<svg version="1.1" id="Capa_1" xmlns="http://www.w3.org/2000/svg" xmlns:xlink="http://www.w3.org/1999/xlink" x="0px" y="0px"
	 viewBox="0 0 512 512" style="enable-background:new 0 0 512 512;" xml:space="preserve">
<style type="text/css">
	.st0{fill:#FF7E7E;}
</style>
<g>
	<g>
		<g>
			<path class="st0" d="M468.5,306.6c-4.1-10.2-15.8-15.2-26-11c-10.2,4.1-15.2,15.8-11,26l23.6,58.3L385,349
				c-5.1-2.2-10.8-2.3-15.9-0.1c-23.9,10.2-49.5,15.4-76.1,15.4c-107.1,0-179-83.8-179-162.1C114,112.7,194.3,40,293,40
				s179,72.7,179,162.1c0,7-0.6,15.3-1.8,22.9c-1.6,10.9,5.9,21.1,16.8,22.7c10.9,1.6,21.1-5.9,22.7-16.8c1.4-9.6,2.2-19.8,2.2-28.8
				c0-54.3-23-105.3-64.8-143.5C405.9,20.8,351.2,0,293,0S180.1,20.8,138.8,58.6c-37.3,34.2-59.7,78.5-64,126.3
				C27.8,216,0,265.9,0,319.5c0,33.5,10.6,65.3,30.7,92.7L1.5,484.5c-3.1,7.5-1.2,16.2,4.6,21.9c3.8,3.7,8.8,5.6,13.9,5.6
				c2.7,0,5.5-0.6,8.1-1.7l84.2-37.1c21.2,7.9,43.6,11.9,66.7,11.9c0.5,0,1,0,1.5-0.1c33.4-0.3,65.9-9,94.1-25.5
				c25.2-14.7,46-35,60.5-58.9c14.2-2.5,28.1-6.4,41.5-11.6l107.3,47.3c2.6,1.1,5.3,1.7,8.1,1.7c5.1,0,10.1-1.9,13.9-5.6
				c5.8-5.7,7.7-14.3,4.6-21.9L468.5,306.6z M179,445c-0.3,0-0.5,0-0.8,0c-20.4-0.1-40.1-4.1-58.4-12c-5.1-2.2-10.9-2.1-15.9,0.1
				L57,453.8l15.1-37.4c2.8-6.9,1.5-14.8-3.3-20.5C50,373.9,40,347.5,40,319.5c0-32,13.4-62.2,37-85.2c7.3,39.9,28,78.1,59.2,108.1
				c38.8,37.3,90.1,59,145.5,61.6C255.6,429.6,218.4,445,179,445z"/>
			<circle class="st0" cx="292" cy="203" r="20"/>
			<circle class="st0" cx="372" cy="203" r="20"/>
			<circle class="st0" cx="212" cy="203" r="20"/>
		</g>
	</g>
</g>
</svg>
